<?xml version="1.0" encoding="UTF-8"?>
<svg width="170.75" height="174.86" version="1.1" viewBox="0 0 45.177 46.266" xmlns="http://www.w3.org/2000/svg" xmlns:cc="http://creativecommons.org/ns#" xmlns:dc="http://purl.org/dc/elements/1.1/" xmlns:rdf="http://www.w3.org/1999/02/22-rdf-syntax-ns#">
 <metadata>
  <rdf:RDF>
   <cc:Work rdf:about="">
    <dc:format>image/svg+xml</dc:format>
    <dc:type rdf:resource="http://purl.org/dc/dcmitype/StillImage"/>
    <dc:title/>
   </cc:Work>
  </rdf:RDF>
 </metadata>
 <g transform="translate(-83.245 -125.03)" fill="white">
  <g transform="rotate(192.94 107.19 124.97)" stroke-width=".26458" aria-label=" software you can love">
   <path d="m120.95 112.06c1.1416 0.4374 2.2176-0.20225 2.8811-1.7333 0.65605-1.5138 0.44032-2.7174-0.66615-3.1887-0.83152-0.36855-1.6006-0.0588-2.258 0.93837l-0.57201 0.86622c-0.25519 0.38093-0.44624 0.51933-0.64923 0.43955-0.21771-0.10254-0.23276-0.40807-0.0818-0.75636 0.1868-0.43105 0.50452-0.65381 0.86488-0.55908l0.81893-1.8897c-1.1311-0.36728-2.2583 0.25834-2.9606 1.8791-0.63512 1.4656-0.38906 2.8543 0.74247 3.3528 0.78578 0.33234 1.4681 5e-3 2.1339-0.99216l0.65936-0.99221c0.24726-0.37208 0.44141-0.42311 0.5936-0.34897 0.22369 0.0888 0.22977 0.41497 0.0878 0.74257-0.16289 0.37587-0.49889 0.603-0.83499 0.49011z"/>
   <path d="m115.49 112.47c-1.2543 1.3993-1.1013 3.0304 0.2196 4.2144 1.3209 1.184 2.959 1.1584 4.2132-0.24082 1.2543-1.3993 1.1013-3.0304-0.2196-4.2144-1.3209-1.184-2.959-1.1584-4.2132 0.24082zm1.1318 1.0347c0.37127-0.41418 1.0034-0.29169 1.6778 0.31288 0.67444 0.60456 0.86507 1.2196 0.4938 1.6338-0.3512 0.39179-0.98334 0.2693-1.6578-0.33526-0.67444-0.60457-0.86507-1.2196-0.51387-1.6114z"/>
   <path d="m113.85 121.23 0.88125-0.57512 0.13967 0.21402c0.14789 0.22661 0.15836 0.43519-0.16897 0.64881-0.12589 0.0822-0.33116 0.18022-0.4817 0.22461l0.56159 1.4107c0.23429-0.0811 0.75761-0.29697 1.1982-0.58453 1.0575-0.69014 1.3594-1.7129 0.57888-2.9089l-0.0904-0.13848 0.61687-0.40258-0.82159-1.2589-0.61688 0.40258-2.3333-3.5754-1.7373 1.1338 2.3333 3.5754-0.88126 0.57511z"/>
   <path d="m109.89 122.9 0.91962-0.37246 0.51919 1.2819 1.9228-0.77878-0.51918-1.2819 0.68275-0.27653-0.56433-1.3934-0.68275 0.27652-0.97912-2.4175c-0.44035-1.1273-1.3635-1.4144-2.6611-0.80367-0.42555 0.20074-0.71283 0.42251-0.86584 0.54531l0.82608 1.2387c0.0661-0.047 0.23868-0.16154 0.35363-0.2081 0.25081-0.10158 0.40743-0.0353 0.49772 0.18768l0.90575 2.2364-0.91962 0.37245z"/>
   <path d="m106.93 117.94-2.238 0.0925-0.68319 3.1277-0.0601 2e-3 -0.939-3.0606-2.238 0.0925-1.2035 5.8274 2.0728-0.0857 0.4868-3.5108 0.0451-2e-3 0.91008 3.453 2.0127-0.0832 0.5907-3.5452 0.0451-2e-3 0.80618 3.4874 2.0728-0.0857z"/>
   <path d="m98.245 117.28c-0.70321-0.26547-1.3244-0.22681-1.8797 0.25451l-0.04219-0.0159 0.28671-0.75947-1.8143-0.68492-1.3964 3.6989c-0.37697 0.99856 0.27683 2.1292 1.8204 2.7119 1.6139 0.60926 2.7271 0.0654 3.1655-0.8939l-1.7862-0.67429c-0.17181 0.31677-0.47766 0.38207-0.84685 0.2427-0.33754-0.12743-0.51823-0.37239-0.41204-0.65368l0.0053-0.0141c0.11814-0.31293 0.49988-0.2813 1.4322-6e-3 1.1451 0.33991 2.1835 0.21771 2.6308-0.96721 0.40617-1.0759-0.12965-1.8486-1.1634-2.2389zm-1.0948 0.98467c0.33051 0.12477 0.50151 0.37412 0.38736 0.6765-0.10486 0.27777-0.38273 0.41792-0.85933 0.31834-0.328-0.0676-0.61208-0.10252-0.84787-0.0951l0.1699-0.45006c0.18583-0.49225 0.71043-0.61558 1.1499-0.44966z"/>
   <path d="m94.897 115.97-1.6961-1.1946-1.7314 2.4581c-0.3809 0.54078-1.0037 0.63533-1.5046 0.28257-0.17514-0.12336-0.43834-0.35012-0.56621-0.52753l-1.0193 1.4472c0.10706 0.13517 0.23723 0.26363 0.38472 0.36752 0.50391 0.35493 1.105 0.33697 1.7445-0.20551l0.04916 0.0346-0.63195 0.8972 1.6469 1.16z"/>
   <path d="m90.469 112.04c-1.0325-1.2236-2.2825-1.5162-3.3277-0.89002l1.2215 1.4477c0.32745-0.11894 0.68875 0.0237 0.96263 0.34826 0.39748 0.47107 0.31994 1.0086-0.10517 1.3673l-0.06894 0.0582-2.4237-2.8724-0.36766 0.31023c-1.4046 1.1852-1.5363 2.7716-0.41174 4.1043 1.1537 1.3672 2.7981 1.4746 4.1654 0.3209 1.4276-1.2046 1.5478-2.7812 0.35537-4.1944zm-2.1909 3.0681c-0.3893 0.31373-0.91728 0.21833-1.2445-0.16944-0.33204-0.39351-0.31985-0.91522 0.05204-1.2438z"/>
   <path d="m89.083 105.08c-0.2333-1.4318-1.0623-1.986-2.0559-2.1477l-6.5108-1.0715 0.35056 2.1514 4.0991 0.29165 0.0097 0.0593-3.7969 1.563 0.34814 2.1366 5.6234-2.9725 0.11112 0.0276c0.33766 0.0859 0.3912 0.48459 0.29536 1.0181l1.5266 0.20819c0.07414-0.33955 0.0764-0.79305-3.62e-4 -1.2641z"/>
   <path d="m86.83 98.797c0.29765-1.8554-0.7136-3.1443-2.4651-3.4253-1.7515-0.28098-3.1152 0.62692-3.4128 2.4823s0.7136 3.1443 2.4651 3.4253c1.7515 0.28099 3.1152-0.62692 3.4128-2.4823zm-1.5116-0.25773c-0.08811 0.5492-0.68598 0.78824-1.5803 0.64478-0.89431-0.14347-1.3874-0.55753-1.2993-1.1067 0.08334-0.51952 0.68122-0.75856 1.5755-0.61509 0.89431 0.14347 1.3874 0.55753 1.3041 1.077z"/>
   <path d="m86.748 91.484c0.50268 0.27142 0.64679 0.72766 0.39919 1.1791-0.25122 0.45803-0.69896 0.55537-1.2016 0.28396l-2.847-1.5615-0.99764 1.8189 3.2293 1.7712c1.109 0.60396 2.283 0.33914 2.8667-0.72521 0.41387-0.7546 0.34972-1.5442-0.17505-2.1192l0.02892-0.05272 0.96219 0.52774 0.94703-1.7267-5.0614-2.776-0.99764 1.8189z"/>
   <path d="m95.138 86.96c1.4898-0.83945 1.9218-2.2088 1.1905-3.5525l-1.6764 0.94462c0.25775 0.5493 0.1334 0.99467-0.26279 1.2179-0.47477 0.26752-1.0146 0.03678-1.4795-0.78833-0.46493-0.82511-0.38265-1.4064 0.09212-1.6739 0.39946-0.22508 0.83173-0.09335 1.1779 0.40613l1.6764-0.94462c-0.7478-1.3042-2.1607-1.6297-3.6406-0.79575-1.6371 0.92248-2.0159 2.5163-1.1451 4.0618 0.87082 1.5455 2.4304 2.0471 4.0675 1.1246z"/>
   <path d="m98.975 85.374c0.73744-0.1455 1.2447-0.50609 1.4625-1.2079l0.0443-0.0087 0.15714 0.79643 1.9026-0.3754-0.76536-3.8789c-0.20662-1.0472-1.3585-1.6626-2.9772-1.3433-1.6924 0.33393-2.3511 1.3833-2.2175 2.4295l1.8731-0.36958c-0.02118-0.35974 0.20418-0.57659 0.59134-0.65298 0.35397-0.06984 0.63671 0.04292 0.69491 0.3379l0.0029 0.01475c0.06475 0.32816-0.27622 0.5027-1.2137 0.76046-1.1521 0.31543-1.9697 0.96709-1.7245 2.2097 0.22262 1.1283 1.0855 1.502 2.1695 1.2881zm0.41051-1.4141c-0.3466 0.06839-0.62342-0.05321-0.68598-0.3703-0.05748-0.29129 0.10463-0.55695 0.56204-0.72382 0.31429-0.11564 0.57404-0.23585 0.77044-0.36654l0.0931 0.47196c0.10185 0.51621-0.27872 0.89776-0.73962 0.9887z"/>
   <path d="m105.01 81.6c0.0798-0.56567 0.44618-0.86531 0.95648-0.79674 0.51774 0.06957 0.77713 0.45329 0.69733 1.019l-0.43242 3.2182 2.0561 0.27627 0.49048-3.6503c0.17089-1.2436-0.49393-2.2506-1.7082-2.4137-0.84181-0.11311-1.5676 0.23683-1.9143 0.92591l-0.0596-8e-3 0.14615-1.0876-1.9518-0.26226-0.76875 5.7213 2.0561 0.27627z"/>
   <path d="m117.61 81.802-1.721-1.1584-4.2978 6.3853 1.721 1.1584z"/>
   <path d="m115.27 90.149c1.2888 1.3675 2.927 1.3522 4.218 0.13552 1.2909-1.2167 1.4031-2.8511 0.11428-4.2186-1.2888-1.3675-2.927-1.3522-4.218-0.13552-1.2909 1.2167-1.4031 2.8511-0.11428 4.2186zm1.1262-1.0408c-0.3815-0.40478-0.20629-1.0244 0.45284-1.6456s1.288-0.75946 1.6695-0.35468c0.36088 0.3829 0.18567 1.0025-0.47346 1.6237-0.65914 0.62122-1.288 0.75946-1.6489 0.37656z"/>
   <path d="m124.84 94.817-0.92761-1.9726-3.852 0.78148-0.0256-0.05442 3.0588-2.4684-0.92762-1.9726-4.3987 4.2115 1.0236 2.1766z"/>
   <path d="m119.6 99.48c0.19383 1.5892 1.0795 2.5186 2.297 2.567l-0.22931-1.8802c-0.33913-0.0798-0.56333-0.39698-0.61474-0.81855-0.0746-0.61182 0.28461-1.0191 0.83674-1.0864l0.0895-0.01092 0.45498 3.7306 0.47752-0.0582c1.8243-0.22249 2.8032-1.4777 2.5921-3.2087-0.21657-1.7758-1.5338-2.7661-3.3096-2.5495-1.8541 0.22613-2.8182 1.4795-2.5943 3.315zm3.5133-1.3674c0.49754-0.04932 0.88707 0.31964 0.9485 0.82328 0.0623 0.5111-0.23357 0.94094-0.72465 1.0122z"/>
  </g>
 </g>
</svg>
